# xmcd CD database file
#
# Track frame offsets:
#	182
#	14770
#	29332
#	44155
#	58282
#	71482
#	86310
#	99490
#	114652
#	130625
#	145310
#	161350
#	174650
#	188470
#	202222
#	216437
#
# Disc length: 3058 seconds
#
# Revision: 0
# Processed by: cddbd v1.4PL0 Copyright (c) Steve Scherf et al.
# Submitted via: CDex 1.50Beta7
#
DISCID=ee0bf010
DTITLE=Jelly Roll Morton - Mr. Jelly Lord
DYEAR=1956
DGENRE=Jazz
TTITLE0=Black Bottom Stomp
TTITLE1=The Chant
TTITLE2=Dead Man Blues
TTITLE3=Original Jelly Roll Blues
TTITLE4=Grandpa's Spell
TTITLE5=Beale Street Blues
TTITLE6=Kansas City Stomps
TTITLE7=Shoe Shiner's Drag
TTITLE8=Deep Creek Blues
TTITLE9=Pretty Lil
TTITLE10=New Orleans Bump
TTITLE11=Panchartrain
TTITLE12=Blue Blood Blues
TTITLE13=Ham and Eggs
TTITLE14=You Need Some Loving
TTITLE15=I'm Alone Without You
EXTD=YEAR: 1956
EXTT0=
EXTT1=
EXTT2=
EXTT3=
EXTT4=
EXTT5=
EXTT6=
EXTT7=
EXTT8=
EXTT9=
EXTT10=
EXTT11=
EXTT12=
EXTT13=
EXTT14=
EXTT15=
PLAYORDER=
